<?xml version="1.0" standalone="no"?><!DOCTYPE svg PUBLIC "-//W3C//DTD SVG 1.1//EN" "http://www.w3.org/Graphics/SVG/1.1/DTD/svg11.dtd"><svg t="1565076600402" class="icon" viewBox="0 0 1024 1024" version="1.1" xmlns="http://www.w3.org/2000/svg" p-id="2043" xmlns:xlink="http://www.w3.org/1999/xlink" width="200" height="200"><defs><style type="text/css"></style></defs><path d="M460.8 644.266667l-136.533333-136.533334c-8.533333-17.066667-29.866667-21.333333-51.2-12.8-17.066667 8.533333-21.333333 29.866667-12.8 51.2l162.133333 174.933334c8.533333 12.8 17.066667 17.066667 29.866667 17.066666 4.266667 0 12.8 0 17.066666-4.266666 4.266667 0 8.533333-8.533333 8.533334-8.533334l294.4-341.333333c12.8-12.8 12.8-38.4 0-51.2-12.8-12.8-38.4-12.8-51.2 0l-260.266667 311.466667zM512 0C230.4 0 0 230.4 0 512s230.4 512 512 512 512-230.4 512-512S793.6 0 512 0z m311.466667 823.466667c-38.4 38.4-89.6 72.533333-140.8 93.866666-55.466667 21.333333-110.933333 34.133333-170.666667 34.133334s-115.2-12.8-170.666667-34.133334c-51.2-21.333333-98.133333-55.466667-140.8-93.866666-38.4-42.666667-72.533333-89.6-93.866666-140.8-21.333333-55.466667-34.133333-110.933333-34.133334-170.666667s12.8-115.2 34.133334-170.666667C128 290.133333 162.133333 243.2 200.533333 200.533333 243.2 162.133333 290.133333 128 341.333333 106.666667c55.466667-21.333333 110.933333-34.133333 170.666667-34.133334s115.2 12.8 170.666667 34.133334c51.2 21.333333 98.133333 55.466667 140.8 93.866666 38.4 42.666667 72.533333 89.6 93.866666 140.8 21.333333 55.466667 34.133333 110.933333 34.133334 170.666667s-12.8 115.2-34.133334 170.666667c-21.333333 51.2-55.466667 98.133333-93.866666 140.8z" fill="#66C23A" p-id="2044"></path></svg>